<svg xmlns="http://www.w3.org/2000/svg" viewBox="0 0 207.23 179.92"><defs><style>.cls-1{fill:#c1272d;}.cls-2{fill:#97d5c9;}</style></defs><title>Middel 4</title><g id="Laag_2" data-name="Laag 2"><g id="Laag_1-2" data-name="Laag 1"><path class="cls-1" d="M202.23,56.62A51.61,51.61,0,0,0,103.6,35.34,51.58,51.58,0,1,0,23.25,96L102,174.17a2.43,2.43,0,0,0,1.75.73,2.49,2.49,0,0,0,1.77-.73l81.65-81.12h0a51.32,51.32,0,0,0,15.09-36.42Z"/><path class="cls-2" d="M207.23,56.62C206.89,31.15,189.69,8.2,164.79,1.8c-26.26-6.75-54,6.58-65.5,31h8.63C98.14,12,76.2-1.42,53.13.12a57.21,57.21,0,0,0-49,35.4A56.61,56.61,0,0,0,1.62,70.14c2.89,11.77,9.5,21.16,18.13,29.4C25.49,105,31,110.75,36.66,116.34l58.36,58c1.88,1.87,3.86,4.38,6.45,5.23,4.26,1.41,7.1-1.37,9.77-4L135,152l55.73-55.37a5.13,5.13,0,0,0,.78-6.06h0l-.78,6.06a58.17,58.17,0,0,0,16.55-40c.12-6.44-9.88-6.44-10,0A47.69,47.69,0,0,1,183.6,89.51a5.14,5.14,0,0,0-.78,6.06h0l.78-6.06L141,131.84l-28.48,28.29-8.37,8.31c-.46.47-1.69,1.3-1.92,1.91-.51,1.38,3.47,1.39,3,0-.66-1.81-4.28-4.24-5.6-5.56L88,153.21l-29.9-29.7L32.49,98.1C23.82,89.49,15.14,81.46,11.7,69.15,5.25,46.1,18,20.92,40.63,12.8c23.26-8.35,48.29,3,58.66,25.07,1.53,3.27,7.09,3.26,8.63,0,9.6-20.4,32-32.14,54.21-26.43,20.61,5.3,34.82,24.06,35.1,45.18C197.32,63.05,207.32,63.07,207.23,56.62Z"/></g></g></svg>