<svg xmlns="http://www.w3.org/2000/svg" viewBox="0 0 213.39 180.07"><defs><style>.cls-1{fill:#c1272d;}.cls-2{fill:#97d5c9;}.cls-3{font-size:30px;}.cls-3,.cls-7{font-family:MyriadPro-Regular, Myriad Pro;}.cls-4{letter-spacing:-0.01em;}.cls-5{letter-spacing:-0.01em;}.cls-6{letter-spacing:-0.01em;}.cls-7{font-size:16px;}.cls-8{letter-spacing:-0.01em;}.cls-9{letter-spacing:0em;}</style></defs><title>Middel 7</title><g id="Laag_2" data-name="Laag 2"><g id="Laag_1-2" data-name="Laag 1"><path class="cls-1" d="M208.31,56.7c0-28.46-23.86-51.62-53.18-51.62a53.35,53.35,0,0,0-48.45,30.34A53.35,53.35,0,0,0,58.24,5.08C28.91,5.08,5.05,28.24,5.05,56.7a49.82,49.82,0,0,0,3,17.13,51.06,51.06,0,0,0,9.87,16.5,51.91,51.91,0,0,0,5.94,5.73L105,174.26a2.6,2.6,0,0,0,1.81.72,2.64,2.64,0,0,0,1.82-.72l84.13-81.13h0a51.46,51.46,0,0,0,12.4-18.92A50,50,0,0,0,208.31,56.7Z"/><path class="cls-2" d="M213.39,56.7A57.77,57.77,0,0,0,170.16,1.92c-26.79-6.93-55.74,6-67.87,30.94h8.77A59,59,0,0,0,54,.17C32.16,1.84,12.45,15.47,4.09,35.88A55.44,55.44,0,0,0,1.66,70.25c3,11.89,9.86,21.26,18.7,29.47,5.92,5.49,11.64,11.21,17.45,16.82l60.19,58c1.9,1.83,3.92,4.3,6.5,5.13,4.41,1.45,7.36-1.5,10.18-4.22l24.16-23.29,57.51-55.46a5.19,5.19,0,0,0,.8-6.15h0l-.79,6.15a57.47,57.47,0,0,0,17-40c.11-6.54-10-6.54-10.16,0a46.89,46.89,0,0,1-14.06,32.83,5.22,5.22,0,0,0-.8,6.16h0l.79-6.15L145,132.18,116.1,160l-8.6,8.29c-.38.37-2,1.45-2.07,2-.2,1.12,2.91.59,2.86.09-.1-1.28-4.92-4.75-5.78-5.57l-11.44-11L60.2,124,33.74,98.52c-8.56-8.26-17.5-15.88-21.34-27.66-7.65-23.5,5.41-49,28.37-57.55A49.32,49.32,0,0,1,102.29,38c1.61,3.32,7.16,3.32,8.77,0a49.21,49.21,0,0,1,56.4-26.27,47.41,47.41,0,0,1,35.77,45C203.32,63.23,213.47,63.24,213.39,56.7Z"/><text class="cls-3" transform="translate(34.92 60.63)"><tspan class="cls-4">L</tspan><tspan class="cls-5" x="13.74" y="0">o</tspan><tspan class="cls-6" x="30" y="0">v</tspan><tspan x="44.13" y="0">e</tspan></text><text class="cls-7" transform="translate(87.27 113.63) scale(1.44 1)">Li<tspan class="cls-8" x="11.3" y="0">f</tspan><tspan class="cls-9" x="15.76" y="0">e</tspan></text><text class="cls-3" transform="translate(128.91 60.72)">Li<tspan class="cls-6" x="21.18" y="0">v</tspan><tspan x="35.31" y="0">e</tspan></text></g></g></svg>